<svg xmlns="http://www.w3.org/2000/svg" version="1.1" xmlns:xlink="http://www.w3.org/1999/xlink" xmlns:svgjs="http://svgjs.dev/svgjs" width="1500" height="1500" viewBox="0 0 1500 1500"><rect width="1500" height="1500" fill="#ffffff"></rect><g transform="matrix(0.6666666666666666,0,0,0.6666666666666666,249.39393939393938,671.2504209481214)"><svg viewBox="0 0 396 63" data-background-color="#ffffff" preserveAspectRatio="xMidYMid meet" height="238" width="1500" xmlns="http://www.w3.org/2000/svg" xmlns:xlink="http://www.w3.org/1999/xlink"><g id="tight-bounds" transform="matrix(1,0,0,1,0.2400000000000091,-0.2317847882246724)"><svg viewBox="0 0 395.52 63.463569576449345" height="63.463569576449345" width="395.52"><g><svg viewBox="0 0 517.3168759478293 83.00661293938735" height="63.463569576449345" width="395.52"><g transform="matrix(1,0,0,1,121.79687594782938,11.47197038453183)"><svg viewBox="0 0 395.52 60.062672170323694" height="60.062672170323694" width="395.52"><g id="textblocktransform"><svg viewBox="0 0 395.52 60.062672170323694" height="60.062672170323694" width="395.52" id="textblock"><g><svg viewBox="0 0 395.52 60.062672170323694" height="60.062672170323694" width="395.52"><g transform="matrix(1,0,0,1,0,0)"><svg width="395.52" viewBox="2.45 -34.6 230.13000000000002 34.95" height="60.062672170323694" data-palette-color="#0369a1"><path d="M24.6-25.6L24.6-7.5Q24.6-4.65 23.9-2.98 23.2-1.3 21.98-0.65 20.75 0 18.75 0L18.75 0Q15.8 0 14.48-1.58 13.15-3.15 13.1-7.15L13.1-7.15 13-25.6 8.75-25.6Q5.6-25.6 4.03-26.6 2.45-27.6 2.45-30.15L2.45-30.15Q2.45-31.7 3.08-32.6 3.7-33.5 4.95-33.88 6.2-34.25 8.3-34.25L8.3-34.25 29.7-34.25Q32.5-34.25 33.75-33.25 35-32.25 35-29.8L35-29.8Q35-28.15 34.27-27.23 33.55-26.3 32.35-25.95 31.15-25.6 29.25-25.6L29.25-25.6 24.6-25.6ZM47.8-11.85L47.8-11.85Q47.8-14.45 47.15-16.43 46.5-18.4 45.25-18.4L45.25-18.4Q44.4-18.4 43.75-17.4 43.1-16.4 42.8-14.95 42.5-13.5 42.5-11.85L42.5-11.85Q42.5-9.3 43.2-7.38 43.9-5.45 45.2-5.45 46.5-5.45 47.15-7.35 47.8-9.25 47.8-11.85ZM45.2 0.35L45.2 0.35Q41.3 0.35 38.17-1.05 35.05-2.45 33.17-5.25 31.3-8.05 31.3-11.8L31.3-11.8Q31.3-17.5 35.2-20.85 39.1-24.2 45.2-24.2 51.3-24.2 55.15-20.85 59-17.5 59-11.8L59-11.8Q59-6.15 55.07-2.9 51.15 0.35 45.2 0.35ZM89.84-28.7L89.84-7.5Q89.84-3.45 88.5-1.73 87.15 0 84.34 0L84.34 0Q81.15 0 79.95-2L79.95-2Q76.7 0.35 72.09 0.35L72.09 0.35Q68.2 0.35 65.59-2.88 63-6.1 63-11.7L63-11.7Q63-17.4 65.55-20.78 68.09-24.15 72.09-24.15L72.09-24.15Q75.7-24.15 78.84-21.85L78.84-21.85 78.84-28.25Q78.84-31.3 80.34-32.77 81.84-34.25 84.34-34.25L84.34-34.25Q87.09-34.25 88.47-33.15 89.84-32.05 89.84-28.7L89.84-28.7ZM78.95-7.2L78.95-7.2 78.9-16.55Q78.05-17.95 76.7-17.95L76.7-17.95Q75.84-17.95 75.17-17 74.5-16.05 74.15-14.65 73.8-13.25 73.8-11.7L73.8-11.7Q73.8-9.4 74.55-7.6 75.3-5.8 76.65-5.8L76.65-5.8Q76.9-5.8 77.15-5.85 77.4-5.9 77.59-5.98 77.8-6.05 78-6.18 78.2-6.3 78.34-6.45 78.5-6.6 78.65-6.8 78.8-7 78.95-7.2ZM110.59-11.85L110.59-11.85Q110.59-14.45 109.94-16.43 109.29-18.4 108.04-18.4L108.04-18.4Q107.19-18.4 106.54-17.4 105.89-16.4 105.59-14.95 105.29-13.5 105.29-11.85L105.29-11.85Q105.29-9.3 105.99-7.38 106.69-5.45 107.99-5.45 109.29-5.45 109.94-7.35 110.59-9.25 110.59-11.85ZM107.99 0.35L107.99 0.35Q104.09 0.35 100.97-1.05 97.84-2.45 95.97-5.25 94.09-8.05 94.09-11.8L94.09-11.8Q94.09-17.5 97.99-20.85 101.89-24.2 107.99-24.2 114.09-24.2 117.94-20.85 121.79-17.5 121.79-11.8L121.79-11.8Q121.79-6.15 117.87-2.9 113.94 0.35 107.99 0.35ZM159.84 0L146.79 0Q144.49-0.05 143.09-0.73 141.69-1.4 140.99-2.95 140.29-4.5 140.29-7.1L140.29-7.1 140.29-28.25Q140.29-30.9 141.84-32.58 143.39-34.25 145.94-34.25L145.94-34.25Q148.94-34.25 150.36-33.15 151.79-32.05 151.79-28.7L151.79-28.7 151.79-8.65 160.34-8.65Q163.24-8.65 164.41-7.8 165.59-6.95 165.59-4.3L165.59-4.3Q165.59-1.6 164.24-0.8 162.89 0 159.84 0L159.84 0ZM169.74-30.8L169.74-30.8Q169.74-32.45 171.16-33.52 172.59-34.6 175.19-34.6L175.19-34.6Q180.64-34.6 180.64-30.8L180.64-30.8Q180.64-28.7 179.26-27.85 177.89-27 175.19-27L175.19-27Q172.84-27 171.28-27.9 169.74-28.8 169.74-30.8ZM180.59-18.35L180.59-5.35Q180.59-2.35 179.34-1.18 178.09 0 174.94 0L174.94 0Q171.99 0 170.91-1.38 169.84-2.75 169.84-5.9L169.84-5.9 169.84-18.2Q169.84-20.75 171.21-22.3 172.59-23.85 174.89-23.85L174.89-23.85Q177.59-23.85 179.09-22.68 180.59-21.5 180.59-18.35L180.59-18.35ZM196.88-24.2L196.88-24.2Q201.53-24.2 204.63-22.3 207.73-20.4 207.73-18.15L207.73-18.15Q207.73-17.5 207.18-16.95 206.63-16.4 205.78-16.4L205.78-16.4Q205.03-16.4 204.13-16.93 203.23-17.45 202.43-18.05 201.63-18.65 200.33-19.15 199.03-19.65 197.58-19.65L197.58-19.65Q195.63-19.65 195.63-18.45L195.63-18.45Q195.63-17.6 196.63-17.1 197.63-16.6 199.56-16.05 201.48-15.5 202.48-15L202.48-15Q206.23-13.55 207.63-11.88 209.03-10.2 209.03-7.45L209.03-7.45Q209.03-6.1 208.28-4.78 207.53-3.45 206.03-2.27 204.53-1.1 201.96-0.38 199.38 0.35 196.08 0.35L196.08 0.35Q189.63 0.35 186.43-2.6L186.43-2.6Q184.88-4.05 184.88-5.6L184.88-5.6Q184.88-6.55 185.51-7.1 186.13-7.65 187.28-7.65L187.28-7.65Q188.43-7.65 190.78-6.53 193.13-5.4 195.13-5.4L195.13-5.4Q197.88-5.4 197.88-6.75L197.88-6.75Q197.88-7.45 196.43-7.88 194.98-8.3 192.63-8.9 190.28-9.5 188.88-10.4L188.88-10.4Q186.68-11.35 185.81-12.78 184.93-14.2 184.93-16.25L184.93-16.25Q184.93-19.75 188.26-21.98 191.58-24.2 196.88-24.2ZM214.73-10.7L214.73-10.7 214.73-16.6Q213.48-16.65 212.73-17.03 211.98-17.4 211.66-18 211.33-18.6 211.33-19.5L211.33-19.5Q211.33-22.35 214.78-22.6L214.78-22.6 214.78-27.25Q214.78-29.15 217.53-30.68 220.28-32.2 222.98-32.2L222.98-32.2Q224.63-32.2 225.13-31.25 225.63-30.3 225.63-28.4L225.63-28.4 225.68-22.65 227.03-22.65Q229.78-22.65 230.81-21.93 231.83-21.2 231.83-19.3L231.83-19.3Q231.83-18.5 231.53-17.95 231.23-17.4 230.56-17.1 229.88-16.8 228.93-16.68 227.98-16.55 226.58-16.55L226.58-16.55 225.68-16.55 225.68-11.05Q225.68-10.25 225.75-9.73 225.83-9.2 225.98-8.9 226.13-8.6 226.41-8.5 226.68-8.4 227.08-8.4L227.08-8.4Q227.68-8.4 228.08-8.83 228.48-9.25 228.71-9.78 228.93-10.3 229.31-10.73 229.68-11.15 230.18-11.15L230.18-11.15Q231.33-11.15 231.96-10.6 232.58-10.05 232.58-9.25L232.58-9.25Q232.58-7.9 232.06-6.35 231.53-4.8 230.53-3.35 229.53-1.9 227.75-0.95 225.98 0 223.78 0L223.78 0Q218.83 0 216.78-2.5 214.73-5 214.73-10.7Z" opacity="1" transform="matrix(1,0,0,1,0,0)" fill="#0369a1" class="wordmark-text-0" data-fill-palette-color="primary" id="text-0"></path></svg></g></svg></g></svg></g></svg></g><g><svg viewBox="0 0 107.61752055254804 83.00661293938735" height="83.00661293938735" width="107.61752055254804"><g><svg xmlns="http://www.w3.org/2000/svg" xmlns:xlink="http://www.w3.org/1999/xlink" version="1.1" x="0" y="0" viewBox="1.9829999999999988 13 96.017 74.059" enable-background="new 0 0 100 100" xml:space="preserve" height="83.00661293938735" width="107.61752055254804" class="icon-icon-0" data-fill-palette-color="accent" id="icon-0"><g fill="#ff9966" data-fill-palette-color="accent"><path d="M91.978 87.059H8.008c-3.327 0-6.025-2.698-6.025-6.025 0-3.326 2.698-6.025 6.025-6.025h83.97c3.326 0 6.022 2.699 6.022 6.025C98 84.36 95.304 87.059 91.978 87.059z" fill="#ff9966" data-fill-palette-color="accent"></path><path d="M38.912 58.799H8.008c-3.327 0-6.025-2.699-6.025-6.025V19.025C1.983 15.699 4.681 13 8.008 13h30.904c3.326 0 6.025 2.699 6.025 6.025v33.749C44.937 56.1 42.238 58.799 38.912 58.799zM14.033 46.748h18.853V25.051H14.033V46.748z" fill="#ff9966" data-fill-palette-color="accent"></path><path d="M91.978 26.88H61.473c-3.327 0-6.026-2.699-6.026-6.026s2.699-6.025 6.026-6.025h30.505c3.326 0 6.022 2.698 6.022 6.025S95.304 26.88 91.978 26.88z" fill="#ff9966" data-fill-palette-color="accent"></path><path d="M91.978 56.969H61.473c-3.327 0-6.026-2.697-6.026-6.024s2.699-6.025 6.026-6.025h30.505c3.326 0 6.022 2.698 6.022 6.025S95.304 56.969 91.978 56.969z" fill="#ff9966" data-fill-palette-color="accent"></path></g></svg></g></svg></g></svg></g><defs></defs></svg><rect width="395.52" height="63.463569576449345" fill="none" stroke="none" visibility="hidden"></rect></g></svg></g></svg>